<svg width="45" height="32" viewBox="0 0 45 32" fill="none" xmlns="http://www.w3.org/2000/svg">
<path d="M8.1875 28.875L7.5625 29.375L7.3125 29.8125V30.9375L7.6875 31.5625L8.375 32H9.5L10.3125 31.375L10.5625 30.875L10.625 30.1875L10.5 29.75L10.125 29.1875L9.6875 28.875L9.25 28.75L8.1875 28.875Z" fill="#5CB0BC"/>
<path d="M8.1875 28.875L7.5625 29.375L7.3125 29.8125V30.9375L7.6875 31.5625L8.375 32H9.5L10.3125 31.375L10.5625 30.875L10.625 30.1875L10.5 29.75L10.125 29.1875L9.6875 28.875L9.25 28.75L8.1875 28.875Z" fill="url(#paint0_linear_133_603)" fill-opacity="0.2"/>
<path d="M0.875 28.875L0.25 29.375L0 29.8125V30.9375L0.375 31.5625L1.0625 32H2.1875L3 31.375L3.25 30.875L3.3125 30.1875L3.1875 29.75L2.8125 29.1875L2.375 28.875L1.9375 28.75L0.875 28.875Z" fill="#4CDBEF"/>
<path d="M0.875 28.875L0.25 29.375L0 29.8125V30.9375L0.375 31.5625L1.0625 32H2.1875L3 31.375L3.25 30.875L3.3125 30.1875L3.1875 29.75L2.8125 29.1875L2.375 28.875L1.9375 28.75L0.875 28.875Z" fill="url(#paint1_linear_133_603)" fill-opacity="0.2"/>
<path d="M9 22.75V23.4375L9.25 24.0625L9.6875 24.5L10.3125 24.75H17.125L17.75 24.5L18.25 24L18.4375 23.5V22.8125L18.125 22.125L17.6875 21.75L17 21.5H10.4375L9.5625 21.875L9 22.75Z" fill="#05AAC1"/>
<path d="M9 22.75V23.4375L9.25 24.0625L9.6875 24.5L10.3125 24.75H17.125L17.75 24.5L18.25 24L18.4375 23.5V22.8125L18.125 22.125L17.6875 21.75L17 21.5H10.4375L9.5625 21.875L9 22.75Z" fill="url(#paint2_linear_133_603)" fill-opacity="0.2"/>
<path d="M5.1875 21.5L4.6875 21.625L3.9375 22.25L3.6875 22.875L3.8125 23.8125L4.3125 24.4375L5 24.75H5.6875L6.1875 24.5625L6.75 24.0625L7 23.4375V22.8125L6.75 22.25L6.25 21.75L5.1875 21.5Z" fill="#5CB0BC"/>
<path d="M5.1875 21.5L4.6875 21.625L3.9375 22.25L3.6875 22.875L3.8125 23.8125L4.3125 24.4375L5 24.75H5.6875L6.1875 24.5625L6.75 24.0625L7 23.4375V22.8125L6.75 22.25L6.25 21.75L5.1875 21.5Z" fill="url(#paint3_linear_133_603)" fill-opacity="0.2"/>
<path d="M14.5625 30.8125L15.1875 31.6875L15.9375 32H32.4375L34.8125 31.5625L36.25 31.0625L37.75 30.3125L39.3125 29.25L40.5 28.1875L41.875 26.5L42.75 25.0625L43.625 23.0625L44.125 21.375H21.75L21.1875 21.625L20.5625 22.3125L20.375 23L20.4375 23.625L20.6875 24.125L21.1875 24.5625L21.8125 24.75L22.9375 24.8125L23.4375 25.0625L23.875 25.5L24.1875 26.125L24.25 27L23.8125 27.9375L23.3125 28.375L22.5 28.6875H15.8125L15.0625 29.0625L14.6875 29.5L14.5 30.125L14.5625 30.8125Z" fill="#4CDBEF"/>
<path d="M14.5625 30.8125L15.1875 31.6875L15.9375 32H32.4375L34.8125 31.5625L36.25 31.0625L37.75 30.3125L39.3125 29.25L40.5 28.1875L41.875 26.5L42.75 25.0625L43.625 23.0625L44.125 21.375H21.75L21.1875 21.625L20.5625 22.3125L20.375 23L20.4375 23.625L20.6875 24.125L21.1875 24.5625L21.8125 24.75L22.9375 24.8125L23.4375 25.0625L23.875 25.5L24.1875 26.125L24.25 27L23.8125 27.9375L23.3125 28.375L22.5 28.6875H15.8125L15.0625 29.0625L14.6875 29.5L14.5 30.125L14.5625 30.8125Z" fill="url(#paint4_linear_133_603)" fill-opacity="0.2"/>
<path d="M6.9375 14.375L6.3125 14.6875L5.8125 15.3125L5.6875 16.375L5.9375 16.9375L6.4375 17.4375L7.125 17.6875H7.75L8.4375 17.375L8.9375 16.8125L9.125 15.8125L8.8125 15.0625L8.1875 14.5L6.9375 14.375Z" fill="#5CB0BC"/>
<path d="M6.9375 14.375L6.3125 14.6875L5.8125 15.3125L5.6875 16.375L5.9375 16.9375L6.4375 17.4375L7.125 17.6875H7.75L8.4375 17.375L8.9375 16.8125L9.125 15.8125L8.8125 15.0625L8.1875 14.5L6.9375 14.375Z" fill="url(#paint5_linear_133_603)" fill-opacity="0.2"/>
<path d="M1.25 14.375L0.625 14.6875L0.1875 15.1875L0 15.6875L0.0625 16.625L0.75 17.4375L1.375 17.6875H2.0625L2.8125 17.3125L3.25 16.75L3.375 15.5625L2.6875 14.625L2.125 14.375H1.25Z" fill="#5CB0BC"/>
<path d="M1.25 14.375L0.625 14.6875L0.1875 15.1875L0 15.6875L0.0625 16.625L0.75 17.4375L1.375 17.6875H2.0625L2.8125 17.3125L3.25 16.75L3.375 15.5625L2.6875 14.625L2.125 14.375H1.25Z" fill="url(#paint6_linear_133_603)" fill-opacity="0.2"/>
<path d="M11.375 15.75V16.3125L11.6875 17L12.25 17.5L12.75 17.6875H21.8125L22.75 17.9375L24 19.0625L25.0625 19.5625H44.5L44.8125 17.5625V14.8125L44.5625 12.8125L44.4375 12.6875H25.1875L24.25 13L23.125 14L22.25 14.375H12.625L11.6875 15L11.375 15.75Z" fill="#5CB0BC"/>
<path d="M11.375 15.75V16.3125L11.6875 17L12.25 17.5L12.75 17.6875H21.8125L22.75 17.9375L24 19.0625L25.0625 19.5625H44.5L44.8125 17.5625V14.8125L44.5625 12.8125L44.4375 12.6875H25.1875L24.25 13L23.125 14L22.25 14.375H12.625L11.6875 15L11.375 15.75Z" fill="url(#paint7_linear_133_603)" fill-opacity="0.2"/>
<path d="M8.8125 8.875L8.9375 9.6875L9.5625 10.4375L10.1875 10.6875H16.875L17.875 10.0625L18.1875 9.3125L18.125 8.5625L17.875 8.0625L17.375 7.625L16.8125 7.4375H10.1875L9.1875 8L8.8125 8.875Z" fill="#05AAC1"/>
<path d="M8.8125 8.875L8.9375 9.6875L9.5625 10.4375L10.1875 10.6875H16.875L17.875 10.0625L18.1875 9.3125L18.125 8.5625L17.875 8.0625L17.375 7.625L16.8125 7.4375H10.1875L9.1875 8L8.8125 8.875Z" fill="url(#paint8_linear_133_603)" fill-opacity="0.2"/>
<path d="M4.8125 7.4375L3.875 8L3.5625 8.625L3.5 9.1875L3.6875 9.8125L4.25 10.4375L4.9375 10.6875H5.4375L6.1875 10.375L6.5 10.0625L6.8125 9.375V8.6875L6.5625 8.125L6.125 7.6875L5.4375 7.4375H4.8125Z" fill="#5CB0BC"/>
<path d="M4.8125 7.4375L3.875 8L3.5625 8.625L3.5 9.1875L3.6875 9.8125L4.25 10.4375L4.9375 10.6875H5.4375L6.1875 10.375L6.5 10.0625L6.8125 9.375V8.6875L6.5625 8.125L6.125 7.6875L5.4375 7.4375H4.8125Z" fill="url(#paint9_linear_133_603)" fill-opacity="0.2"/>
<path d="M1.3125 0L0.375 0.5625L0.0625 1.1875L0 1.75L0.1875 2.375L0.75 3L1.4375 3.25H1.9375L2.6875 2.9375L3 2.625L3.3125 1.9375V1.25L3.0625 0.6875L2.625 0.25L1.9375 0H1.3125Z" fill="#4CDBEF"/>
<path d="M1.3125 0L0.375 0.5625L0.0625 1.1875L0 1.75L0.1875 2.375L0.75 3L1.4375 3.25H1.9375L2.6875 2.9375L3 2.625L3.3125 1.9375V1.25L3.0625 0.6875L2.625 0.25L1.9375 0H1.3125Z" fill="url(#paint10_linear_133_603)" fill-opacity="0.2"/>
<path d="M14.4375 1.1875V2.125L14.625 2.5625L14.9375 2.9375L15.5625 3.3125L22.375 3.375L23.25 3.6875L23.8125 4.1875L24.25 5.1875L24.1875 6L23.8125 6.6875L23 7.3125L21.375 7.5L20.875 7.75L20.25 8.6875L20.1875 9.3125L20.5 10.1875L20.9375 10.6875L21.6875 11.0625H44.0625L43.875 10.0625L43.0625 7.875L42.25 6.3125L41.1875 4.75L39.5 3L37.3125 1.5L35.375 0.625L34.125 0.25L32.5625 0H15.8125L15.0625 0.3125L14.4375 1.1875Z" fill="#4CDBEF"/>
<path d="M14.4375 1.1875V2.125L14.625 2.5625L14.9375 2.9375L15.5625 3.3125L22.375 3.375L23.25 3.6875L23.8125 4.1875L24.25 5.1875L24.1875 6L23.8125 6.6875L23 7.3125L21.375 7.5L20.875 7.75L20.25 8.6875L20.1875 9.3125L20.5 10.1875L20.9375 10.6875L21.6875 11.0625H44.0625L43.875 10.0625L43.0625 7.875L42.25 6.3125L41.1875 4.75L39.5 3L37.3125 1.5L35.375 0.625L34.125 0.25L32.5625 0H15.8125L15.0625 0.3125L14.4375 1.1875Z" fill="url(#paint11_linear_133_603)" fill-opacity="0.2"/>
<path d="M8.625 0L8.125 0.1875L7.5 0.75L7.25 1.4375V2L7.5625 2.6875L7.9375 3.0625L8.375 3.3125L9.25 3.375L9.8125 3.1875L10.375 2.6875L10.6875 1.9375V1.375L10.5 0.875L10 0.3125L9.25 0H8.625Z" fill="#5CB0BC"/>
<path d="M8.625 0L8.125 0.1875L7.5 0.75L7.25 1.4375V2L7.5625 2.6875L7.9375 3.0625L8.375 3.3125L9.25 3.375L9.8125 3.1875L10.375 2.6875L10.6875 1.9375V1.375L10.5 0.875L10 0.3125L9.25 0H8.625Z" fill="url(#paint12_linear_133_603)" fill-opacity="0.2"/>
<defs>
<linearGradient id="paint0_linear_133_603" x1="7.3125" y1="28.6738" x2="10.2336" y2="31.0361" gradientUnits="userSpaceOnUse">
<stop/>
<stop offset="1" stop-color="#FFF6F6"/>
</linearGradient>
<linearGradient id="paint1_linear_133_603" x1="1.50382e-07" y1="28.6738" x2="2.9211" y2="31.0361" gradientUnits="userSpaceOnUse">
<stop/>
<stop offset="1" stop-color="#FFF6F6"/>
</linearGradient>
<linearGradient id="paint2_linear_133_603" x1="9" y1="21.4238" x2="11.182" y2="26.4512" gradientUnits="userSpaceOnUse">
<stop/>
<stop offset="1" stop-color="#FFF6F6"/>
</linearGradient>
<linearGradient id="paint3_linear_133_603" x1="3.6875" y1="21.4238" x2="6.6086" y2="23.7861" gradientUnits="userSpaceOnUse">
<stop/>
<stop offset="1" stop-color="#FFF6F6"/>
</linearGradient>
<linearGradient id="paint4_linear_133_603" x1="14.5" y1="21.126" x2="21.8309" y2="37.344" gradientUnits="userSpaceOnUse">
<stop/>
<stop offset="1" stop-color="#FFF6F6"/>
</linearGradient>
<linearGradient id="paint5_linear_133_603" x1="5.6875" y1="14.2974" x2="8.67554" y2="16.7576" gradientUnits="userSpaceOnUse">
<stop/>
<stop offset="1" stop-color="#FFF6F6"/>
</linearGradient>
<linearGradient id="paint6_linear_133_603" x1="1.5322e-07" y1="14.2974" x2="2.97706" y2="16.704" gradientUnits="userSpaceOnUse">
<stop/>
<stop offset="1" stop-color="#FFF6F6"/>
</linearGradient>
<linearGradient id="paint7_linear_133_603" x1="11.375" y1="12.5264" x2="14.4439" y2="24.3693" gradientUnits="userSpaceOnUse">
<stop/>
<stop offset="1" stop-color="#FFF6F6"/>
</linearGradient>
<linearGradient id="paint8_linear_133_603" x1="8.8125" y1="7.36133" x2="11.0044" y2="12.378" gradientUnits="userSpaceOnUse">
<stop/>
<stop offset="1" stop-color="#FFF6F6"/>
</linearGradient>
<linearGradient id="paint9_linear_133_603" x1="3.5" y1="7.36133" x2="6.4211" y2="9.72359" gradientUnits="userSpaceOnUse">
<stop/>
<stop offset="1" stop-color="#FFF6F6"/>
</linearGradient>
<linearGradient id="paint10_linear_133_603" x1="1.50382e-07" y1="-0.0761719" x2="2.9211" y2="2.28609" gradientUnits="userSpaceOnUse">
<stop/>
<stop offset="1" stop-color="#FFF6F6"/>
</linearGradient>
<linearGradient id="paint11_linear_133_603" x1="14.4375" y1="-0.259278" x2="22.2729" y2="16.3891" gradientUnits="userSpaceOnUse">
<stop/>
<stop offset="1" stop-color="#FFF6F6"/>
</linearGradient>
<linearGradient id="paint12_linear_133_603" x1="7.25" y1="-0.0791016" x2="10.283" y2="2.37194" gradientUnits="userSpaceOnUse">
<stop/>
<stop offset="1" stop-color="#FFF6F6"/>
</linearGradient>
</defs>
</svg>
