<svg width="40" height="40" viewBox="0 0 40 40" fill="none" xmlns="http://www.w3.org/2000/svg">
<path d="M12.7592 26.5391L12.4402 26.7943L12.3126 27.0176V27.5918L12.504 27.9107L12.8549 28.134H13.429L13.8437 27.8151L13.9713 27.5599L14.0032 27.209L13.9394 26.9857L13.748 26.6986L13.5247 26.5391L13.3015 26.4753L12.7592 26.5391Z" fill="#00E0FF"/>
<path d="M9.02714 26.5391L8.70816 26.7943L8.58057 27.0176V27.5918L8.77195 27.9107L9.12283 28.134H9.69699L10.1117 27.8151L10.2393 27.5599L10.2712 27.209L10.2074 26.9857L10.016 26.6986L9.79269 26.5391L9.5694 26.4753L9.02714 26.5391Z" fill="#00E0FF"/>
<path d="M13.1738 23.4131V23.764L13.3014 24.083L13.5247 24.3062L13.8437 24.4338H17.3206L17.6395 24.3062L17.8947 24.0511L17.9904 23.7959V23.445L17.8309 23.0941L17.6076 22.9027L17.2568 22.7751H13.9075L13.4609 22.9665L13.1738 23.4131Z" fill="#00E0FF"/>
<path d="M11.2281 22.7751L10.9729 22.8389L10.5901 23.1579L10.4625 23.4769L10.5263 23.9554L10.7815 24.2743L11.1324 24.4338H11.4833L11.7384 24.3381L12.0255 24.083L12.1531 23.764V23.445L12.0255 23.1579L11.7703 22.9027L11.2281 22.7751Z" fill="#00E0FF"/>
<path d="M16.0127 27.5279L16.3317 27.9745L16.7145 28.134H25.1355L26.3477 27.9107L27.0813 27.6555L27.8469 27.2727L28.6443 26.7304L29.2504 26.1882L29.9521 25.3269L30.3987 24.5933L30.8453 23.5725L31.1005 22.7113H19.681L19.3939 22.8389L19.0749 23.1898L18.9792 23.5406L19.0111 23.8596L19.1387 24.1148L19.3939 24.3381L19.7129 24.4338L20.2871 24.4657L20.5422 24.5933L20.7655 24.8166L20.925 25.1355L20.9569 25.5821L20.7336 26.0606L20.4784 26.2839L20.0638 26.4434H16.6507L16.2679 26.6347L16.0765 26.858L15.9808 27.177L16.0127 27.5279Z" fill="#00E0FF"/>
<path d="M12.1212 19.1388L11.8023 19.2983L11.5471 19.6173L11.4833 20.1595L11.6109 20.4466L11.8661 20.7018L12.2169 20.8294H12.5359L12.8868 20.6699L13.142 20.3828L13.2377 19.8724L13.0782 19.4897L12.7592 19.2026L12.1212 19.1388Z" fill="#00E0FF"/>
<path d="M9.21852 19.1388L8.89955 19.2983L8.67626 19.5535L8.58057 19.8087L8.61246 20.2871L8.96334 20.7018L9.28232 20.8294H9.6332L10.016 20.638L10.2393 20.3509L10.3031 19.7449L9.95218 19.2664L9.6651 19.1388H9.21852Z" fill="#00E0FF"/>
<path d="M14.386 19.8405V20.1275L14.5455 20.4784L14.8326 20.7336L15.0877 20.8293H19.7129L20.1914 20.9569L20.8294 21.5311L21.3716 21.7862H31.2919L31.4514 20.7655V19.362L31.3238 18.3413L31.26 18.2775H21.4354L20.957 18.437L20.3828 18.9473L19.9362 19.1387H15.0239L14.5455 19.4577L14.386 19.8405Z" fill="#00E0FF"/>
<path d="M13.0781 16.3318L13.1419 16.7465L13.4609 17.1292L13.7799 17.2568H17.193L17.7033 16.9379L17.8628 16.5551L17.8309 16.1723L17.7033 15.9171L17.4481 15.6938L17.1611 15.5981H13.7799L13.2695 15.8852L13.0781 16.3318Z" fill="#00E0FF"/>
<path d="M11.0367 15.5981L10.5582 15.8852L10.3987 16.2042L10.3668 16.4913L10.4625 16.8103L10.7496 17.1292L11.1005 17.2568H11.3557L11.7384 17.0973L11.8979 16.9379L12.0574 16.587V16.2361L11.9298 15.949L11.7065 15.7257L11.3557 15.5981H11.0367Z" fill="#00E0FF"/>
<path d="M9.25042 11.8022L8.77195 12.0893L8.61246 12.4083L8.58057 12.6954L8.67626 13.0144L8.96334 13.3333L9.31422 13.4609H9.5694L9.95218 13.3014L10.1117 13.142L10.2712 12.7911V12.4402L10.1436 12.1531L9.92028 11.9298L9.5694 11.8022H9.25042Z" fill="#00E0FF"/>
<path d="M15.949 12.4083V12.8868L16.0447 13.1101L16.2042 13.3014L16.5231 13.4928L20 13.5247L20.4466 13.6842L20.7337 13.9394L20.9569 14.4498L20.9251 14.8644L20.7337 15.2153L20.319 15.5343L19.4896 15.63L19.2345 15.7576L18.9155 16.2361L18.8836 16.555L19.0431 17.0016L19.2664 17.2568L19.6491 17.4482H31.0686L30.9729 16.9378L30.5582 15.8214L30.1436 15.0239L29.6013 14.2265L28.74 13.3333L27.6236 12.5678L26.6348 12.1212L25.9968 11.9298L25.1994 11.8022H16.6507L16.268 11.9617L15.949 12.4083Z" fill="#00E0FF"/>
<path d="M12.9825 11.8022L12.7273 11.8979L12.4084 12.185L12.2808 12.5359V12.823L12.4403 13.1739L12.6316 13.3652L12.8549 13.4928L13.3015 13.5247L13.5886 13.429L13.8757 13.1739L14.0351 12.7911V12.504L13.9395 12.2488L13.6843 11.9617L13.3015 11.8022H12.9825Z" fill="#00E0FF"/>
</svg>
