<svg width="200" height="200" viewBox="0 0 200 200" fill="none" xmlns="http://www.w3.org/2000/svg">
<path d="M60.0098 136.211L58.252 137.617L57.5488 138.848V142.012L58.6035 143.77L60.5371 145H63.7012L65.9863 143.242L66.6895 141.836L66.8652 139.902L66.5137 138.672L65.459 137.09L64.2285 136.211L62.998 135.859L60.0098 136.211Z" fill="black"/>
<path d="M60.0098 136.211L58.252 137.617L57.5488 138.848V142.012L58.6035 143.77L60.5371 145H63.7012L65.9863 143.242L66.6895 141.836L66.8652 139.902L66.5137 138.672L65.459 137.09L64.2285 136.211L62.998 135.859L60.0098 136.211Z" fill="url(#paint0_linear_178_2)" fill-opacity="0.2"/>
<path d="M39.4434 136.211L37.6855 137.617L36.9824 138.848V142.012L38.0371 143.77L39.9707 145H43.1348L45.4199 143.242L46.123 141.836L46.2988 139.902L45.9473 138.672L44.8926 137.09L43.6621 136.211L42.4316 135.859L39.4434 136.211Z" fill="black"/>
<path d="M39.4434 136.211L37.6855 137.617L36.9824 138.848V142.012L38.0371 143.77L39.9707 145H43.1348L45.4199 143.242L46.123 141.836L46.2988 139.902L45.9473 138.672L44.8926 137.09L43.6621 136.211L42.4316 135.859L39.4434 136.211Z" fill="url(#paint1_linear_178_2)" fill-opacity="0.2"/>
<path d="M62.2949 118.984V120.918L62.998 122.676L64.2285 123.906L65.9863 124.609H85.1465L86.9043 123.906L88.3105 122.5L88.8379 121.094V119.16L87.959 117.227L86.7285 116.172L84.7949 115.469H66.3379L63.877 116.523L62.2949 118.984Z" fill="black"/>
<path d="M62.2949 118.984V120.918L62.998 122.676L64.2285 123.906L65.9863 124.609H85.1465L86.9043 123.906L88.3105 122.5L88.8379 121.094V119.16L87.959 117.227L86.7285 116.172L84.7949 115.469H66.3379L63.877 116.523L62.2949 118.984Z" fill="url(#paint2_linear_178_2)" fill-opacity="0.2"/>
<path d="M51.5723 115.469L50.166 115.82L48.0566 117.578L47.3535 119.336L47.7051 121.973L49.1113 123.73L51.0449 124.609H52.9785L54.3848 124.082L55.9668 122.676L56.6699 120.918V119.16L55.9668 117.578L54.5605 116.172L51.5723 115.469Z" fill="black"/>
<path d="M51.5723 115.469L50.166 115.82L48.0566 117.578L47.3535 119.336L47.7051 121.973L49.1113 123.73L51.0449 124.609H52.9785L54.3848 124.082L55.9668 122.676L56.6699 120.918V119.16L55.9668 117.578L54.5605 116.172L51.5723 115.469Z" fill="url(#paint3_linear_178_2)" fill-opacity="0.2"/>
<path d="M77.9395 141.66L79.6973 144.121L81.8066 145H128.213L134.893 143.77L138.936 142.363L143.154 140.254L147.549 137.266L150.889 134.277L154.756 129.531L157.217 125.488L159.678 119.863L161.084 115.117H98.1543L96.5723 115.82L94.8145 117.754L94.2871 119.687L94.4629 121.445L95.166 122.852L96.5723 124.082L98.3301 124.609L101.494 124.785L102.9 125.488L104.131 126.719L105.01 128.477L105.186 130.937L103.955 133.574L102.549 134.805L100.264 135.684H81.4551L79.3457 136.738L78.291 137.969L77.7637 139.727L77.9395 141.66Z" fill="black"/>
<path d="M77.9395 141.66L79.6973 144.121L81.8066 145H128.213L134.893 143.77L138.936 142.363L143.154 140.254L147.549 137.266L150.889 134.277L154.756 129.531L157.217 125.488L159.678 119.863L161.084 115.117H98.1543L96.5723 115.82L94.8145 117.754L94.2871 119.687L94.4629 121.445L95.166 122.852L96.5723 124.082L98.3301 124.609L101.494 124.785L102.9 125.488L104.131 126.719L105.01 128.477L105.186 130.937L103.955 133.574L102.549 134.805L100.264 135.684H81.4551L79.3457 136.738L78.291 137.969L77.7637 139.727L77.9395 141.66Z" fill="url(#paint4_linear_178_2)" fill-opacity="0.2"/>
<path d="M56.4941 95.4297L54.7363 96.3086L53.3301 98.0664L52.9785 101.055L53.6816 102.637L55.0879 104.043L57.0215 104.746H58.7793L60.7129 103.867L62.1191 102.285L62.6465 99.4727L61.7676 97.3633L60.0098 95.7812L56.4941 95.4297Z" fill="black"/>
<path d="M56.4941 95.4297L54.7363 96.3086L53.3301 98.0664L52.9785 101.055L53.6816 102.637L55.0879 104.043L57.0215 104.746H58.7793L60.7129 103.867L62.1191 102.285L62.6465 99.4727L61.7676 97.3633L60.0098 95.7812L56.4941 95.4297Z" fill="url(#paint5_linear_178_2)" fill-opacity="0.2"/>
<path d="M40.498 95.4297L38.7402 96.3086L37.5098 97.7148L36.9824 99.1211L37.1582 101.758L39.0918 104.043L40.8496 104.746H42.7832L44.8926 103.691L46.123 102.109L46.4746 98.7695L44.541 96.1328L42.959 95.4297H40.498Z" fill="black"/>
<path d="M40.498 95.4297L38.7402 96.3086L37.5098 97.7148L36.9824 99.1211L37.1582 101.758L39.0918 104.043L40.8496 104.746H42.7832L44.8926 103.691L46.123 102.109L46.4746 98.7695L44.541 96.1328L42.959 95.4297H40.498Z" fill="url(#paint6_linear_178_2)" fill-opacity="0.2"/>
<path d="M68.9746 99.2969V100.879L69.8535 102.812L71.4355 104.219L72.8418 104.746H98.3301L100.967 105.449L104.482 108.613L107.471 110.02H162.139L163.018 104.395V96.6602L162.314 91.0352L161.963 90.6836H107.822L105.186 91.5625L102.021 94.375L99.5605 95.4297H72.4902L69.8535 97.1875L68.9746 99.2969Z" fill="black"/>
<path d="M68.9746 99.2969V100.879L69.8535 102.812L71.4355 104.219L72.8418 104.746H98.3301L100.967 105.449L104.482 108.613L107.471 110.02H162.139L163.018 104.395V96.6602L162.314 91.0352L161.963 90.6836H107.822L105.186 91.5625L102.021 94.375L99.5605 95.4297H72.4902L69.8535 97.1875L68.9746 99.2969Z" fill="url(#paint7_linear_178_2)" fill-opacity="0.2"/>
<path d="M61.7676 79.9609L62.1191 82.2461L63.877 84.3555L65.6348 85.0586H84.4434L87.2559 83.3008L88.1348 81.1914L87.959 79.082L87.2559 77.6758L85.8496 76.4453L84.2676 75.918H65.6348L62.8223 77.5L61.7676 79.9609Z" fill="black"/>
<path d="M61.7676 79.9609L62.1191 82.2461L63.877 84.3555L65.6348 85.0586H84.4434L87.2559 83.3008L88.1348 81.1914L87.959 79.082L87.2559 77.6758L85.8496 76.4453L84.2676 75.918H65.6348L62.8223 77.5L61.7676 79.9609Z" fill="url(#paint8_linear_178_2)" fill-opacity="0.2"/>
<path d="M50.5176 75.918L47.8809 77.5L47.002 79.2578L46.8262 80.8398L47.3535 82.5977L48.9355 84.3555L50.8691 85.0586H52.2754L54.3848 84.1797L55.2637 83.3008L56.1426 81.3672V79.4336L55.4395 77.8516L54.209 76.6211L52.2754 75.918H50.5176Z" fill="black"/>
<path d="M50.5176 75.918L47.8809 77.5L47.002 79.2578L46.8262 80.8398L47.3535 82.5977L48.9355 84.3555L50.8691 85.0586H52.2754L54.3848 84.1797L55.2637 83.3008L56.1426 81.3672V79.4336L55.4395 77.8516L54.209 76.6211L52.2754 75.918H50.5176Z" fill="url(#paint9_linear_178_2)" fill-opacity="0.2"/>
<path d="M40.6738 55L38.0371 56.582L37.1582 58.3398L36.9824 59.9219L37.5098 61.6797L39.0918 63.4375L41.0254 64.1406H42.4316L44.541 63.2617L45.4199 62.3828L46.2988 60.4492V58.5156L45.5957 56.9336L44.3652 55.7031L42.4316 55H40.6738Z" fill="black"/>
<path d="M40.6738 55L38.0371 56.582L37.1582 58.3398L36.9824 59.9219L37.5098 61.6797L39.0918 63.4375L41.0254 64.1406H42.4316L44.541 63.2617L45.4199 62.3828L46.2988 60.4492V58.5156L45.5957 56.9336L44.3652 55.7031L42.4316 55H40.6738Z" fill="url(#paint10_linear_178_2)" fill-opacity="0.2"/>
<path d="M77.5879 58.3398V60.9766L78.1152 62.207L78.9941 63.2617L80.752 64.3164L99.9121 64.4922L102.373 65.3711L103.955 66.7773L105.186 69.5898L105.01 71.875L103.955 73.8086L101.67 75.5664L97.0996 76.0938L95.6934 76.7969L93.9355 79.4336L93.7598 81.1914L94.6387 83.6523L95.8691 85.0586L97.9785 86.1133H160.908L160.381 83.3008L158.096 77.1484L155.811 72.7539L152.822 68.3594L148.076 63.4375L141.924 59.2188L136.475 56.7578L132.959 55.7031L128.564 55H81.4551L79.3457 55.8789L77.5879 58.3398Z" fill="black"/>
<path d="M77.5879 58.3398V60.9766L78.1152 62.207L78.9941 63.2617L80.752 64.3164L99.9121 64.4922L102.373 65.3711L103.955 66.7773L105.186 69.5898L105.01 71.875L103.955 73.8086L101.67 75.5664L97.0996 76.0938L95.6934 76.7969L93.9355 79.4336L93.7598 81.1914L94.6387 83.6523L95.8691 85.0586L97.9785 86.1133H160.908L160.381 83.3008L158.096 77.1484L155.811 72.7539L152.822 68.3594L148.076 63.4375L141.924 59.2188L136.475 56.7578L132.959 55.7031L128.564 55H81.4551L79.3457 55.8789L77.5879 58.3398Z" fill="url(#paint11_linear_178_2)" fill-opacity="0.2"/>
<path d="M61.2402 55L59.834 55.5273L58.0762 57.1094L57.373 59.043V60.625L58.252 62.5586L59.3066 63.6133L60.5371 64.3164L62.998 64.4922L64.5801 63.9648L66.1621 62.5586L67.041 60.4492V58.8672L66.5137 57.4609L65.1074 55.8789L62.998 55H61.2402Z" fill="black"/>
<path d="M61.2402 55L59.834 55.5273L58.0762 57.1094L57.373 59.043V60.625L58.252 62.5586L59.3066 63.6133L60.5371 64.3164L62.998 64.4922L64.5801 63.9648L66.1621 62.5586L67.041 60.4492V58.8672L66.5137 57.4609L65.1074 55.8789L62.998 55H61.2402Z" fill="url(#paint12_linear_178_2)" fill-opacity="0.2"/>
<defs>
<linearGradient id="paint0_linear_178_2" x1="57.5488" y1="135.645" x2="65.7644" y2="142.289" gradientUnits="userSpaceOnUse">
<stop/>
<stop offset="1" stop-color="#FFF6F6"/>
</linearGradient>
<linearGradient id="paint1_linear_178_2" x1="36.9824" y1="135.645" x2="45.198" y2="142.289" gradientUnits="userSpaceOnUse">
<stop/>
<stop offset="1" stop-color="#FFF6F6"/>
</linearGradient>
<linearGradient id="paint2_linear_178_2" x1="62.2949" y1="115.255" x2="68.4318" y2="129.394" gradientUnits="userSpaceOnUse">
<stop/>
<stop offset="1" stop-color="#FFF6F6"/>
</linearGradient>
<linearGradient id="paint3_linear_178_2" x1="47.3535" y1="115.255" x2="55.5691" y2="121.898" gradientUnits="userSpaceOnUse">
<stop/>
<stop offset="1" stop-color="#FFF6F6"/>
</linearGradient>
<linearGradient id="paint4_linear_178_2" x1="77.7637" y1="114.417" x2="98.3819" y2="160.03" gradientUnits="userSpaceOnUse">
<stop/>
<stop offset="1" stop-color="#FFF6F6"/>
</linearGradient>
<linearGradient id="paint5_linear_178_2" x1="52.9785" y1="95.2113" x2="61.3824" y2="102.131" gradientUnits="userSpaceOnUse">
<stop/>
<stop offset="1" stop-color="#FFF6F6"/>
</linearGradient>
<linearGradient id="paint6_linear_178_2" x1="36.9824" y1="95.2113" x2="45.3554" y2="101.98" gradientUnits="userSpaceOnUse">
<stop/>
<stop offset="1" stop-color="#FFF6F6"/>
</linearGradient>
<linearGradient id="paint7_linear_178_2" x1="68.9746" y1="90.2304" x2="77.606" y2="123.539" gradientUnits="userSpaceOnUse">
<stop/>
<stop offset="1" stop-color="#FFF6F6"/>
</linearGradient>
<linearGradient id="paint8_linear_178_2" x1="61.7676" y1="75.7037" x2="67.9323" y2="89.8133" gradientUnits="userSpaceOnUse">
<stop/>
<stop offset="1" stop-color="#FFF6F6"/>
</linearGradient>
<linearGradient id="paint9_linear_178_2" x1="46.8262" y1="75.7037" x2="55.0418" y2="82.3476" gradientUnits="userSpaceOnUse">
<stop/>
<stop offset="1" stop-color="#FFF6F6"/>
</linearGradient>
<linearGradient id="paint10_linear_178_2" x1="36.9824" y1="54.7858" x2="45.198" y2="61.4296" gradientUnits="userSpaceOnUse">
<stop/>
<stop offset="1" stop-color="#FFF6F6"/>
</linearGradient>
<linearGradient id="paint11_linear_178_2" x1="77.5879" y1="54.2708" x2="99.6248" y2="101.094" gradientUnits="userSpaceOnUse">
<stop/>
<stop offset="1" stop-color="#FFF6F6"/>
</linearGradient>
<linearGradient id="paint12_linear_178_2" x1="57.373" y1="54.7775" x2="65.9034" y2="61.6711" gradientUnits="userSpaceOnUse">
<stop/>
<stop offset="1" stop-color="#FFF6F6"/>
</linearGradient>
</defs>
</svg>
