<svg preserveAspectRatio="none" width="100%" height="100%" overflow="visible" style="display: block;" viewBox="0 0 33.6094 24" fill="none" xmlns="http://www.w3.org/2000/svg">
<g id="Group">
<g id="Vector">
<path d="M6.14062 21.6562L5.67187 22.0312L5.48438 22.3594V23.2031L5.76562 23.6719L6.28125 24H7.125L7.73437 23.5312L7.92187 23.1562L7.96875 22.6406L7.875 22.3125L7.59375 21.8906L7.26562 21.6562L6.9375 21.5625L6.14062 21.6562Z" fill="var(--fill-0, white)"/>
<path d="M6.14062 21.6562L5.67187 22.0312L5.48438 22.3594V23.2031L5.76562 23.6719L6.28125 24H7.125L7.73437 23.5312L7.92187 23.1562L7.96875 22.6406L7.875 22.3125L7.59375 21.8906L7.26562 21.6562L6.9375 21.5625L6.14062 21.6562Z" fill="url(#paint0_linear_0_4)" fill-opacity="0.2"/>
</g>
<g id="Vector_2">
<path d="M0.65625 21.6562L0.1875 22.0312L0 22.3594V23.2031L0.28125 23.6719L0.796875 24H1.64062L2.25 23.5312L2.4375 23.1562L2.48437 22.6406L2.39062 22.3125L2.10937 21.8906L1.78125 21.6562L1.45312 21.5625L0.65625 21.6562Z" fill="var(--fill-0, white)"/>
<path d="M0.65625 21.6562L0.1875 22.0312L0 22.3594V23.2031L0.28125 23.6719L0.796875 24H1.64062L2.25 23.5312L2.4375 23.1562L2.48437 22.6406L2.39062 22.3125L2.10937 21.8906L1.78125 21.6562L1.45312 21.5625L0.65625 21.6562Z" fill="url(#paint1_linear_0_4)" fill-opacity="0.2"/>
</g>
<g id="Vector_3">
<path d="M6.75 17.0625V17.5781L6.9375 18.0469L7.26562 18.375L7.73437 18.5625H12.8437L13.3125 18.375L13.6875 18L13.8281 17.625V17.1094L13.5937 16.5938L13.2656 16.3125L12.75 16.125H7.82812L7.17187 16.4062L6.75 17.0625Z" fill="var(--fill-0, white)"/>
<path d="M6.75 17.0625V17.5781L6.9375 18.0469L7.26562 18.375L7.73437 18.5625H12.8437L13.3125 18.375L13.6875 18L13.8281 17.625V17.1094L13.5937 16.5938L13.2656 16.3125L12.75 16.125H7.82812L7.17187 16.4062L6.75 17.0625Z" fill="url(#paint2_linear_0_4)" fill-opacity="0.2"/>
</g>
<g id="Vector_4">
<path d="M3.89062 16.125L3.51562 16.2188L2.95312 16.6875L2.76562 17.1562L2.85937 17.8594L3.23437 18.3281L3.75 18.5625H4.26562L4.64062 18.4219L5.0625 18.0469L5.25 17.5781V17.1094L5.0625 16.6875L4.6875 16.3125L3.89062 16.125Z" fill="var(--fill-0, white)"/>
<path d="M3.89062 16.125L3.51562 16.2188L2.95312 16.6875L2.76562 17.1562L2.85937 17.8594L3.23437 18.3281L3.75 18.5625H4.26562L4.64062 18.4219L5.0625 18.0469L5.25 17.5781V17.1094L5.0625 16.6875L4.6875 16.3125L3.89062 16.125Z" fill="url(#paint3_linear_0_4)" fill-opacity="0.2"/>
</g>
<g id="Vector_5">
<path d="M10.9219 23.1094L11.3906 23.7656L11.9531 24H24.3281L26.1094 23.6719L27.1875 23.2969L28.3125 22.7344L29.4844 21.9375L30.375 21.1406L31.4062 19.875L32.0625 18.7969L32.7187 17.2969L33.0937 16.0312H16.3125L15.8906 16.2187L15.4219 16.7344L15.2812 17.25L15.3281 17.7187L15.5156 18.0937L15.8906 18.4219L16.3594 18.5625L17.2031 18.6094L17.5781 18.7969L17.9062 19.125L18.1406 19.5937L18.1875 20.25L17.8594 20.9531L17.4844 21.2812L16.875 21.5156H11.8594L11.2969 21.7969L11.0156 22.125L10.875 22.5937L10.9219 23.1094Z" fill="var(--fill-0, white)"/>
<path d="M10.9219 23.1094L11.3906 23.7656L11.9531 24H24.3281L26.1094 23.6719L27.1875 23.2969L28.3125 22.7344L29.4844 21.9375L30.375 21.1406L31.4062 19.875L32.0625 18.7969L32.7187 17.2969L33.0937 16.0312H16.3125L15.8906 16.2187L15.4219 16.7344L15.2812 17.25L15.3281 17.7187L15.5156 18.0937L15.8906 18.4219L16.3594 18.5625L17.2031 18.6094L17.5781 18.7969L17.9062 19.125L18.1406 19.5937L18.1875 20.25L17.8594 20.9531L17.4844 21.2812L16.875 21.5156H11.8594L11.2969 21.7969L11.0156 22.125L10.875 22.5937L10.9219 23.1094Z" fill="url(#paint4_linear_0_4)" fill-opacity="0.2"/>
</g>
<g id="Vector_6">
<path d="M5.20312 10.7812L4.73437 11.0156L4.35937 11.4844L4.26562 12.2812L4.45312 12.7031L4.82812 13.0781L5.34375 13.2656H5.8125L6.32812 13.0312L6.70312 12.6094L6.84375 11.8594L6.60937 11.2969L6.14062 10.875L5.20312 10.7812Z" fill="var(--fill-0, white)"/>
<path d="M5.20312 10.7812L4.73437 11.0156L4.35937 11.4844L4.26562 12.2812L4.45312 12.7031L4.82812 13.0781L5.34375 13.2656H5.8125L6.32812 13.0312L6.70312 12.6094L6.84375 11.8594L6.60937 11.2969L6.14062 10.875L5.20312 10.7812Z" fill="url(#paint5_linear_0_4)" fill-opacity="0.2"/>
</g>
<g id="Vector_7">
<path d="M0.9375 10.7812L0.46875 11.0156L0.140625 11.3906L0 11.7656L0.046875 12.4687L0.5625 13.0781L1.03125 13.2656H1.54687L2.10937 12.9844L2.4375 12.5625L2.53125 11.6719L2.01562 10.9687L1.59375 10.7812H0.9375Z" fill="var(--fill-0, white)"/>
<path d="M0.9375 10.7812L0.46875 11.0156L0.140625 11.3906L0 11.7656L0.046875 12.4687L0.5625 13.0781L1.03125 13.2656H1.54687L2.10937 12.9844L2.4375 12.5625L2.53125 11.6719L2.01562 10.9687L1.59375 10.7812H0.9375Z" fill="url(#paint6_linear_0_4)" fill-opacity="0.2"/>
</g>
<g id="Vector_8">
<path d="M8.53125 11.8125V12.2344L8.76562 12.75L9.1875 13.125L9.5625 13.2656H16.3594L17.0625 13.4531L18 14.2969L18.7969 14.6719H33.375L33.6094 13.1719V11.1094L33.4219 9.60937L33.3281 9.51562H18.8906L18.1875 9.75L17.3437 10.5L16.6875 10.7812H9.46875L8.76562 11.25L8.53125 11.8125Z" fill="var(--fill-0, white)"/>
<path d="M8.53125 11.8125V12.2344L8.76562 12.75L9.1875 13.125L9.5625 13.2656H16.3594L17.0625 13.4531L18 14.2969L18.7969 14.6719H33.375L33.6094 13.1719V11.1094L33.4219 9.60937L33.3281 9.51562H18.8906L18.1875 9.75L17.3437 10.5L16.6875 10.7812H9.46875L8.76562 11.25L8.53125 11.8125Z" fill="url(#paint7_linear_0_4)" fill-opacity="0.2"/>
</g>
<g id="Vector_9">
<path d="M6.60938 6.65625L6.70312 7.26562L7.17187 7.82812L7.64062 8.01562H12.6562L13.4062 7.54688L13.6406 6.98438L13.5937 6.42188L13.4062 6.04688L13.0312 5.71875L12.6094 5.57812H7.64062L6.89062 6L6.60938 6.65625Z" fill="var(--fill-0, white)"/>
<path d="M6.60938 6.65625L6.70312 7.26562L7.17187 7.82812L7.64062 8.01562H12.6562L13.4062 7.54688L13.6406 6.98438L13.5937 6.42188L13.4062 6.04688L13.0312 5.71875L12.6094 5.57812H7.64062L6.89062 6L6.60938 6.65625Z" fill="url(#paint8_linear_0_4)" fill-opacity="0.2"/>
</g>
<g id="Vector_10">
<path d="M3.60937 5.57812L2.90625 6L2.67187 6.46875L2.625 6.89062L2.76562 7.35938L3.1875 7.82812L3.70312 8.01562H4.07812L4.64062 7.78125L4.875 7.54688L5.10937 7.03125V6.51562L4.92187 6.09375L4.59375 5.76562L4.07812 5.57812H3.60937Z" fill="var(--fill-0, white)"/>
<path d="M3.60937 5.57812L2.90625 6L2.67187 6.46875L2.625 6.89062L2.76562 7.35938L3.1875 7.82812L3.70312 8.01562H4.07812L4.64062 7.78125L4.875 7.54688L5.10937 7.03125V6.51562L4.92187 6.09375L4.59375 5.76562L4.07812 5.57812H3.60937Z" fill="url(#paint9_linear_0_4)" fill-opacity="0.2"/>
</g>
<g id="Vector_11">
<path d="M0.984375 0L0.28125 0.421875L0.046875 0.890625L0 1.3125L0.140625 1.78125L0.5625 2.25L1.07812 2.4375H1.45312L2.01562 2.20312L2.25 1.96875L2.48437 1.45312V0.9375L2.29687 0.515625L1.96875 0.1875L1.45312 0H0.984375Z" fill="var(--fill-0, white)"/>
<path d="M0.984375 0L0.28125 0.421875L0.046875 0.890625L0 1.3125L0.140625 1.78125L0.5625 2.25L1.07812 2.4375H1.45312L2.01562 2.20312L2.25 1.96875L2.48437 1.45312V0.9375L2.29687 0.515625L1.96875 0.1875L1.45312 0H0.984375Z" fill="url(#paint10_linear_0_4)" fill-opacity="0.2"/>
</g>
<g id="Vector_12">
<path d="M10.8281 0.890625V1.59375L10.9687 1.92188L11.2031 2.20312L11.6719 2.48438L16.7812 2.53125L17.4375 2.76562L17.8594 3.14062L18.1875 3.89062L18.1406 4.5L17.8594 5.01562L17.25 5.48438L16.0312 5.625L15.6562 5.8125L15.1875 6.51562L15.1406 6.98438L15.375 7.64062L15.7031 8.01562L16.2656 8.29688H33.0469L32.9062 7.54688L32.2969 5.90625L31.6875 4.73438L30.8906 3.5625L29.625 2.25L27.9844 1.125L26.5312 0.46875L25.5937 0.1875L24.4219 0H11.8594L11.2969 0.234375L10.8281 0.890625Z" fill="var(--fill-0, white)"/>
<path d="M10.8281 0.890625V1.59375L10.9687 1.92188L11.2031 2.20312L11.6719 2.48438L16.7812 2.53125L17.4375 2.76562L17.8594 3.14062L18.1875 3.89062L18.1406 4.5L17.8594 5.01562L17.25 5.48438L16.0312 5.625L15.6562 5.8125L15.1875 6.51562L15.1406 6.98438L15.375 7.64062L15.7031 8.01562L16.2656 8.29688H33.0469L32.9062 7.54688L32.2969 5.90625L31.6875 4.73438L30.8906 3.5625L29.625 2.25L27.9844 1.125L26.5312 0.46875L25.5937 0.1875L24.4219 0H11.8594L11.2969 0.234375L10.8281 0.890625Z" fill="url(#paint11_linear_0_4)" fill-opacity="0.2"/>
</g>
<g id="Vector_13">
<path d="M6.46875 0L6.09375 0.140625L5.625 0.5625L5.4375 1.07812V1.5L5.67187 2.01562L5.95312 2.29687L6.28125 2.48437L6.9375 2.53125L7.35937 2.39062L7.78125 2.01562L8.01562 1.45312V1.03125L7.875 0.65625L7.5 0.234375L6.9375 0H6.46875Z" fill="var(--fill-0, white)"/>
<path d="M6.46875 0L6.09375 0.140625L5.625 0.5625L5.4375 1.07812V1.5L5.67187 2.01562L5.95312 2.29687L6.28125 2.48437L6.9375 2.53125L7.35937 2.39062L7.78125 2.01562L8.01562 1.45312V1.03125L7.875 0.65625L7.5 0.234375L6.9375 0H6.46875Z" fill="url(#paint12_linear_0_4)" fill-opacity="0.2"/>
</g>
</g>
<defs>
<linearGradient id="paint0_linear_0_4" x1="5.48438" y1="21.5054" x2="7.6752" y2="23.2771" gradientUnits="userSpaceOnUse">
<stop/>
<stop offset="1" stop-color="#FFF6F6"/>
</linearGradient>
<linearGradient id="paint1_linear_0_4" x1="1.12787e-07" y1="21.5054" x2="2.19083" y2="23.2771" gradientUnits="userSpaceOnUse">
<stop/>
<stop offset="1" stop-color="#FFF6F6"/>
</linearGradient>
<linearGradient id="paint2_linear_0_4" x1="6.75" y1="16.0679" x2="8.38651" y2="19.8384" gradientUnits="userSpaceOnUse">
<stop/>
<stop offset="1" stop-color="#FFF6F6"/>
</linearGradient>
<linearGradient id="paint3_linear_0_4" x1="2.76563" y1="16.0679" x2="4.95645" y2="17.8396" gradientUnits="userSpaceOnUse">
<stop/>
<stop offset="1" stop-color="#FFF6F6"/>
</linearGradient>
<linearGradient id="paint4_linear_0_4" x1="10.875" y1="15.8445" x2="16.3732" y2="28.008" gradientUnits="userSpaceOnUse">
<stop/>
<stop offset="1" stop-color="#FFF6F6"/>
</linearGradient>
<linearGradient id="paint5_linear_0_4" x1="4.26563" y1="10.723" x2="6.50666" y2="12.5682" gradientUnits="userSpaceOnUse">
<stop/>
<stop offset="1" stop-color="#FFF6F6"/>
</linearGradient>
<linearGradient id="paint6_linear_0_4" x1="1.14915e-07" y1="10.723" x2="2.23279" y2="12.528" gradientUnits="userSpaceOnUse">
<stop/>
<stop offset="1" stop-color="#FFF6F6"/>
</linearGradient>
<linearGradient id="paint7_linear_0_4" x1="8.53125" y1="9.39478" x2="10.833" y2="18.277" gradientUnits="userSpaceOnUse">
<stop/>
<stop offset="1" stop-color="#FFF6F6"/>
</linearGradient>
<linearGradient id="paint8_linear_0_4" x1="6.60938" y1="5.521" x2="8.25331" y2="9.28353" gradientUnits="userSpaceOnUse">
<stop/>
<stop offset="1" stop-color="#FFF6F6"/>
</linearGradient>
<linearGradient id="paint9_linear_0_4" x1="2.625" y1="5.521" x2="4.81583" y2="7.29269" gradientUnits="userSpaceOnUse">
<stop/>
<stop offset="1" stop-color="#FFF6F6"/>
</linearGradient>
<linearGradient id="paint10_linear_0_4" x1="1.12787e-07" y1="-0.057129" x2="2.19083" y2="1.71457" gradientUnits="userSpaceOnUse">
<stop/>
<stop offset="1" stop-color="#FFF6F6"/>
</linearGradient>
<linearGradient id="paint11_linear_0_4" x1="10.8281" y1="-0.194458" x2="16.7046" y2="12.2918" gradientUnits="userSpaceOnUse">
<stop/>
<stop offset="1" stop-color="#FFF6F6"/>
</linearGradient>
<linearGradient id="paint12_linear_0_4" x1="5.4375" y1="-0.0593262" x2="7.71226" y2="1.77896" gradientUnits="userSpaceOnUse">
<stop/>
<stop offset="1" stop-color="#FFF6F6"/>
</linearGradient>
</defs>
</svg>
