<?xml version="1.0" encoding="UTF-8"?>
<svg width="200" height="200" viewBox="0 0 200 200" fill="none" xmlns="http://www.w3.org/2000/svg">
  <circle cx="100" cy="100" r="100" fill="#babbff"/>
  <g transform="translate(37.5 55.369552853925825) scale(3.187889081862441)">

<g id="Vector">
<path d="M7.16406 25.2656L6.61719 25.7031L6.39844 26.0859V27.0703L6.72656 27.6172L7.32812 28H8.3125L9.02344 27.4531L9.24219 27.0156L9.29687 26.4141L9.1875 26.0312L8.85937 25.5391L8.47656 25.2656L8.09375 25.1562L7.16406 25.2656Z" fill="#000000"/>

</g>
<g id="Vector_2">
<path d="M0.765625 25.2656L0.21875 25.7031L0 26.0859V27.0703L0.328125 27.6172L0.929688 28H1.91406L2.625 27.4531L2.84375 27.0156L2.89844 26.4141L2.78906 26.0312L2.46094 25.5391L2.07812 25.2656L1.69531 25.1562L0.765625 25.2656Z" fill="#000000"/>

</g>
<g id="Vector_3">
<path d="M7.875 19.9062V20.5078L8.09375 21.0547L8.47656 21.4375L9.02344 21.6562H14.9844L15.5313 21.4375L15.9688 21L16.1328 20.5625V19.9609L15.8594 19.3594L15.4766 19.0312L14.875 18.8125H9.13281L8.36719 19.1406L7.875 19.9062Z" fill="#000000"/>

</g>
<g id="Vector_4">
<path d="M4.53906 18.8125L4.10156 18.9219L3.44531 19.4688L3.22656 20.0156L3.33594 20.8359L3.77344 21.3828L4.375 21.6562H4.97656L5.41406 21.4922L5.90625 21.0547L6.125 20.5078V19.9609L5.90625 19.4688L5.46875 19.0312L4.53906 18.8125Z" fill="#000000"/>

</g>
<g id="Vector_5">
<path d="M12.7422 26.9609L13.2891 27.7266L13.9453 28H28.3828L30.4609 27.6172L31.7188 27.1797L33.0313 26.5234L34.3984 25.5937L35.4375 24.6641L36.6406 23.1875L37.4063 21.9297L38.1719 20.1797L38.6094 18.7031H19.0312L18.5391 18.9219L17.9922 19.5234L17.8281 20.125L17.8828 20.6719L18.1016 21.1094L18.5391 21.4922L19.0859 21.6562L20.0703 21.7109L20.5078 21.9297L20.8906 22.3125L21.1641 22.8594L21.2187 23.625L20.8359 24.4453L20.3984 24.8281L19.6875 25.1016H13.8359L13.1797 25.4297L12.8516 25.8125L12.6875 26.3594L12.7422 26.9609Z" fill="#000000"/>

</g>
<g id="Vector_6">
<path d="M6.07031 12.5781L5.52344 12.8516L5.08594 13.3984L4.97656 14.3281L5.19531 14.8203L5.63281 15.2578L6.23437 15.4766H6.78125L7.38281 15.2031L7.82031 14.7109L7.98437 13.8359L7.71094 13.1797L7.16406 12.6875L6.07031 12.5781Z" fill="#000000"/>

</g>
<g id="Vector_7">
<path d="M1.09375 12.5781L0.546875 12.8516L0.164062 13.2891L0 13.7266L0.0546875 14.5469L0.65625 15.2578L1.20312 15.4766H1.80469L2.46094 15.1484L2.84375 14.6562L2.95312 13.6172L2.35156 12.7969L1.85938 12.5781H1.09375Z" fill="#000000"/>

</g>
<g id="Vector_8">
<path d="M9.95312 13.7812V14.2734L10.2266 14.875L10.7187 15.3125L11.1562 15.4766H19.0859L19.9062 15.6953L21 16.6797L21.9297 17.1172H38.9375L39.2109 15.3672V12.9609L38.9922 11.2109L38.8828 11.1016H22.0391L21.2187 11.375L20.2344 12.25L19.4687 12.5781H11.0469L10.2266 13.125L9.95312 13.7812Z" fill="#000000"/>

</g>
<g id="Vector_9">
<path d="M7.71094 7.76562L7.82031 8.47656L8.36719 9.13281L8.91406 9.35156H14.7656L15.6406 8.80469L15.9141 8.14844L15.8594 7.49219L15.6406 7.05469L15.2031 6.67188L14.7109 6.50781H8.91406L8.03906 7L7.71094 7.76562Z" fill="#000000"/>

</g>
<g id="Vector_10">
<path d="M4.21094 6.50781L3.39062 7L3.11719 7.54688L3.0625 8.03906L3.22656 8.58594L3.71875 9.13281L4.32031 9.35156H4.75781L5.41406 9.07812L5.6875 8.80469L5.96094 8.20312V7.60156L5.74219 7.10938L5.35937 6.72656L4.75781 6.50781H4.21094Z" fill="#000000"/>

</g>
<g id="Vector_11">
<path d="M1.14844 0L0.328125 0.492188L0.0546875 1.03906L0 1.53125L0.164062 2.07813L0.65625 2.625L1.25781 2.84375H1.69531L2.35156 2.57031L2.625 2.29688L2.89844 1.69531V1.09375L2.67969 0.601563L2.29688 0.21875L1.69531 0H1.14844Z" fill="#000000"/>

</g>
<g id="Vector_12">
<path d="M12.6328 1.03906V1.85938L12.7969 2.24219L13.0703 2.57031L13.6172 2.89844L19.5781 2.95313L20.3437 3.22656L20.8359 3.66406L21.2187 4.53906L21.1641 5.25L20.8359 5.85156L20.125 6.39844L18.7031 6.5625L18.2656 6.78125L17.7187 7.60156L17.6641 8.14844L17.9375 8.91406L18.3203 9.35156L18.9766 9.67969H38.5547L38.3906 8.80469L37.6797 6.89063L36.9688 5.52344L36.0391 4.15625L34.5625 2.625L32.6484 1.3125L30.9531 0.546875L29.8594 0.21875L28.4922 0H13.8359L13.1797 0.273438L12.6328 1.03906Z" fill="#000000"/>

</g>
<g id="Vector_13">
<path d="M7.54687 0L7.10937 0.164062L6.5625 0.65625L6.34375 1.25781V1.75L6.61719 2.35156L6.94531 2.67969L7.32812 2.89844L8.09375 2.95312L8.58594 2.78906L9.07812 2.35156L9.35156 1.69531V1.20312L9.1875 0.765625L8.75 0.273437L8.09375 0H7.54687Z" fill="#000000"/>

</g>
  </g>
</svg>
